<svg version="1.1" id="Layer_1" xmlns="http://www.w3.org/2000/svg" xmlns:xlink="http://www.w3.org/1999/xlink" x="0px" y="0px"
	 width="100%" viewBox="0 0 119 85" enable-background="new 0 0 119 85" xml:space="preserve">
<path fill="#E51166" opacity="1.000000" stroke="none" 
	d="
M1.000000,85.000000 
	C1.000000,57.060764 1.000000,29.121529 1.000000,1.000000 
	C40.020706,1.000000 79.041695,1.000000 118.517532,1.468501 
	C118.963844,27.539997 118.867714,53.143532 119.025787,78.745499 
	C119.054993,83.474854 117.521935,85.140244 112.721733,85.120094 
	C75.481644,84.963860 38.240688,85.013832 1.000000,85.000000 
M115.863403,80.094940 
	C115.863403,55.028164 115.863403,29.961388 115.863403,4.748170 
	C78.594574,4.748170 42.021503,4.748170 5.321014,4.748170 
	C5.321014,30.588690 5.321014,56.124359 5.321014,81.999702 
	C10.807009,81.999702 15.946252,82.008858 21.085453,81.998192 
	C52.393013,81.933220 83.700562,81.863754 115.463326,81.802765 
	C115.801590,81.628769 115.889008,81.370026 115.863403,80.094940 
z"/>
<path fill="#E92E75" opacity="1.000000" stroke="none" 
	d="
M1.000000,85.500000 
	C38.240688,85.013832 75.481644,84.963860 112.721733,85.120094 
	C117.521935,85.140244 119.054993,83.474854 119.025787,78.745499 
	C118.867714,53.143532 118.963844,27.539997 118.986191,1.468501 
	C119.333336,2.329278 119.954697,3.657950 119.957497,4.987925 
	C120.014221,31.922113 120.000000,58.856453 120.000000,86.000000 
	C80.333580,86.000000 40.666790,86.000000 1.000000,85.500000 
z"/>
<path fill="#F9DCD2" opacity="1.000000" stroke="none" 
	d="
M115.008110,81.795776 
	C83.700562,81.863754 52.393013,81.933220 21.085453,81.998192 
	C15.946252,82.008858 10.807009,81.999702 5.321014,81.999702 
	C5.321014,56.124359 5.321014,30.588690 5.321014,4.748170 
	C42.021503,4.748170 78.594574,4.748170 115.863403,4.748170 
	C115.863403,29.961388 115.863403,55.028164 115.657959,80.672333 
	C115.282181,81.413673 115.134041,81.595688 115.008110,81.795776 
M82.317947,28.132864 
	C81.028801,29.080647 79.739655,30.028429 78.295952,31.142035 
	C78.295952,31.142035 77.978859,31.466103 77.391594,31.887135 
	C75.955490,32.981991 74.619865,34.259449 73.055092,35.120476 
	C71.482155,35.985996 69.681114,36.436970 67.800591,36.275257 
	C67.062187,35.453964 66.372849,33.979408 65.577248,33.919662 
	C61.125008,33.585285 56.646778,33.604244 52.178051,33.480042 
	C47.705635,33.355743 43.227528,33.297794 38.767296,32.988773 
	C37.859547,32.925880 37.020290,31.874355 36.149460,31.278582 
	C36.886204,30.504562 37.512985,29.236626 38.379120,29.043798 
	C41.756611,28.291866 45.211494,27.890274 48.634567,27.339556 
	C51.570679,26.867184 54.639282,26.756138 57.400795,25.781332 
	C60.623562,24.643705 61.411751,21.275721 59.011616,19.640825 
	C56.758125,18.105820 54.030083,17.267483 51.510853,16.122599 
	C51.273853,16.563410 51.036854,17.004223 50.799858,17.445036 
	C53.202477,18.994860 55.605099,20.544683 58.007717,22.094507 
	C57.938663,22.631588 57.869610,23.168669 57.800556,23.705750 
	C52.632812,24.225483 47.435677,24.551231 42.306931,25.328333 
	C38.432198,25.915426 33.206917,26.416285 33.573120,31.527109 
	C33.921089,36.383415 39.049812,35.845890 42.756897,36.025532 
	C51.183369,36.433872 59.617397,36.686298 68.828506,37.391766 
	C68.630470,37.830723 68.555473,38.478764 68.216507,38.678246 
	C58.073906,44.647175 53.730801,55.266293 47.698204,64.483116 
	C46.597618,66.164635 46.855335,68.735199 46.486031,70.895355 
	C48.787197,71.149712 51.243786,72.047211 53.359901,71.535828 
	C59.312313,70.097343 65.166061,68.201035 70.971443,66.228416 
	C73.250519,65.454010 75.297668,63.997032 78.093323,62.552074 
	C84.176666,57.940639 90.031662,52.977753 96.416115,48.829777 
	C101.457520,45.554371 103.725815,41.356522 103.364044,35.629326 
	C103.211746,33.218246 102.348732,30.860006 101.947098,28.454653 
	C101.477531,25.642424 100.957428,22.812565 100.850739,19.975632 
	C100.787186,18.285788 101.476074,16.567644 101.826698,14.862222 
	C101.505241,14.593650 101.183792,14.325078 100.862335,14.056507 
	C94.888443,18.654169 88.914551,23.251831 82.317947,28.132864 
M27.650629,52.925499 
	C34.810020,51.732460 41.978256,50.588867 49.122425,49.310734 
	C50.853970,49.000950 52.506130,48.247456 54.194790,47.697990 
	C54.050537,47.101276 53.906284,46.504559 53.762032,45.907845 
	C50.183018,45.907845 46.532696,45.454983 43.040276,46.004902 
	C36.375866,47.054295 29.666300,48.237774 23.240276,50.222809 
	C19.367935,51.418995 17.471317,55.061443 17.817444,59.426437 
	C18.148035,63.595482 19.897135,67.077515 23.979389,68.248505 
	C28.719809,69.608292 33.662319,70.483978 38.573029,70.884880 
	C39.910233,70.994057 41.448696,68.637955 42.894791,67.413277 
	C41.375526,66.257706 39.994755,64.450920 38.306110,64.091797 
	C35.423637,63.478790 32.216808,64.273254 29.394556,63.531563 
	C27.090117,62.925961 23.921803,61.284660 23.412495,59.465389 
	C22.961376,57.853970 25.646278,55.364616 27.650629,52.925499 
z"/>
<path fill="#F9D1CD" opacity="1.000000" stroke="none" 
	d="
M115.235718,81.799271 
	C115.134041,81.595688 115.282181,81.413673 115.589035,81.138138 
	C115.889008,81.370026 115.801590,81.628769 115.235718,81.799271 
z"/>
<path fill="#FADAD2" opacity="1.000000" stroke="none" 
	d="
M77.978859,31.466103 
	C77.978859,31.466103 78.295952,31.142035 78.413696,31.620884 
	C80.025467,31.415859 81.519493,30.731987 83.330826,29.928547 
	C88.133812,26.413757 92.619492,23.018534 97.130653,19.604015 
	C98.417458,24.095554 99.439865,27.664236 100.561279,31.578484 
	C99.580246,32.512264 98.284836,33.745289 96.677170,35.104458 
	C93.172646,37.888012 89.980362,40.545418 86.470665,43.373707 
	C83.875145,45.476376 81.597031,47.408157 79.060349,49.518761 
	C77.531532,50.790813 76.261292,51.884048 74.559464,53.108276 
	C71.363632,53.053322 68.599388,52.867382 66.606712,52.733341 
	C66.264343,49.826023 65.937477,47.050350 65.536240,43.643158 
	C69.373695,40.693737 73.963203,37.208252 78.497589,33.652489 
	C79.669846,32.733242 81.455040,31.403591 77.978859,31.466103 
z"/>
<path fill="#E61B6B" opacity="1.000000" stroke="none" 
	d="
M27.298683,53.094170 
	C25.646278,55.364616 22.961376,57.853970 23.412495,59.465389 
	C23.921803,61.284660 27.090117,62.925961 29.394556,63.531563 
	C32.216808,64.273254 35.423637,63.478790 38.306110,64.091797 
	C39.994755,64.450920 41.375526,66.257706 42.894791,67.413277 
	C41.448696,68.637955 39.910233,70.994057 38.573029,70.884880 
	C33.662319,70.483978 28.719809,69.608292 23.979389,68.248505 
	C19.897135,67.077515 18.148035,63.595482 17.817444,59.426437 
	C17.471317,55.061443 19.367935,51.418995 23.240276,50.222809 
	C29.666300,48.237774 36.375866,47.054295 43.040276,46.004902 
	C46.532696,45.454983 50.183018,45.907845 53.762032,45.907845 
	C53.906284,46.504559 54.050537,47.101276 54.194790,47.697990 
	C52.506130,48.247456 50.853970,49.000950 49.122425,49.310734 
	C41.978256,50.588867 34.810020,51.732460 27.298683,53.094170 
z"/>
<path fill="#E82B73" opacity="1.000000" stroke="none" 
	d="
M77.685226,31.676619 
	C81.455040,31.403591 79.669846,32.733242 78.497589,33.652489 
	C73.963203,37.208252 69.373695,40.693737 65.536240,43.643158 
	C65.937477,47.050350 66.264343,49.826023 66.606712,52.733341 
	C68.599388,52.867382 71.363632,53.053322 74.600204,53.498425 
	C75.094551,54.018169 75.116585,54.278751 74.948486,54.773270 
	C74.169991,55.991447 73.581619,56.975685 72.750732,57.808067 
	C72.160522,57.507992 71.812828,57.359772 71.137802,57.324593 
	C70.462784,57.736397 70.115097,58.035164 69.410950,58.498932 
	C66.452919,59.631874 63.746830,60.390938 61.278973,61.626026 
	C58.771076,62.881157 58.099770,64.755569 59.965408,66.330467 
	C62.101101,66.070648 63.509846,66.104729 64.776588,65.697289 
	C66.704742,65.077103 68.534515,64.151062 70.678154,63.417282 
	C71.957603,63.302639 72.964973,63.125626 74.207924,62.789803 
	C74.667023,62.110943 74.890533,61.590889 75.431526,61.080273 
	C76.169205,61.135830 76.589409,61.181950 77.118065,61.634254 
	C77.301155,62.310600 77.375801,62.580757 77.450439,62.850906 
	C75.297668,63.997032 73.250519,65.454010 70.971443,66.228416 
	C65.166061,68.201035 59.312313,70.097343 53.359901,71.535828 
	C51.243786,72.047211 48.787197,71.149712 46.486031,70.895355 
	C46.855335,68.735199 46.597618,66.164635 47.698204,64.483116 
	C53.730801,55.266293 58.073906,44.647175 68.216507,38.678246 
	C68.555473,38.478764 68.630470,37.830723 68.425095,37.217575 
	C68.021690,37.043385 67.980026,37.069603 67.980026,37.069603 
	C69.681114,36.436970 71.482155,35.985996 73.055092,35.120476 
	C74.619865,34.259449 75.955490,32.981991 77.685226,31.676619 
M60.129593,48.557781 
	C58.240170,51.465080 56.286533,54.333973 54.508018,57.307606 
	C54.081657,58.020470 53.822624,59.490738 54.217979,59.891884 
	C54.902054,60.585979 56.360229,61.273529 57.140293,60.990345 
	C61.305096,59.478405 65.360382,57.664783 69.453545,55.955498 
	C62.719406,54.671440 62.719406,54.671440 64.732880,47.140823 
	C63.122684,47.462475 61.851322,47.716442 60.129593,48.557781 
M49.084003,65.911118 
	C48.734356,67.162003 48.384712,68.412888 47.706169,70.840416 
	C51.507706,69.758331 54.052113,69.034088 57.186653,68.141861 
	C55.505383,65.322144 54.270905,63.251770 52.757092,60.712902 
	C51.373173,62.626617 50.416008,63.950207 49.084003,65.911118 
z"/>
<path fill="#E72872" opacity="1.000000" stroke="none" 
	d="
M77.771881,62.701492 
	C77.375801,62.580757 77.301155,62.310600 77.383293,61.415894 
	C81.079765,57.909111 84.619461,55.026882 88.417679,52.013283 
	C89.535828,51.130375 90.395447,50.378830 91.266678,49.607899 
	C91.278275,49.588509 91.326302,49.608662 91.616684,49.442192 
	C92.871399,48.192863 93.835732,47.110008 94.833527,45.683029 
	C101.715050,43.107071 100.559090,43.116718 101.118973,34.657787 
	C100.121346,35.128040 99.121742,35.593918 97.920891,35.892902 
	C97.476234,35.476776 97.232826,35.227543 96.989418,34.978310 
	C98.284836,33.745289 99.580246,32.512264 100.561279,31.578484 
	C99.439865,27.664236 98.417458,24.095554 97.130653,19.604015 
	C92.619492,23.018534 88.133812,26.413757 83.318222,29.562126 
	C82.972427,28.826675 82.956543,28.338083 82.940659,27.849491 
	C88.914551,23.251831 94.888443,18.654169 100.862335,14.056507 
	C101.183792,14.325078 101.505241,14.593650 101.826698,14.862222 
	C101.476074,16.567644 100.787186,18.285788 100.850739,19.975632 
	C100.957428,22.812565 101.477531,25.642424 101.947098,28.454653 
	C102.348732,30.860006 103.211746,33.218246 103.364044,35.629326 
	C103.725815,41.356522 101.457520,45.554371 96.416115,48.829777 
	C90.031662,52.977753 84.176666,57.940639 77.771881,62.701492 
z"/>
<path fill="#E72872" opacity="1.000000" stroke="none" 
	d="
M68.035019,37.022743 
	C59.617397,36.686298 51.183369,36.433872 42.756897,36.025532 
	C39.049812,35.845890 33.921089,36.383415 33.573120,31.527109 
	C33.206917,26.416285 38.432198,25.915426 42.306931,25.328333 
	C47.435677,24.551231 52.632812,24.225483 57.800556,23.705750 
	C57.869610,23.168669 57.938663,22.631588 58.007717,22.094507 
	C55.605099,20.544683 53.202477,18.994860 50.799858,17.445036 
	C51.036854,17.004223 51.273853,16.563410 51.510853,16.122599 
	C54.030083,17.267483 56.758125,18.105820 59.011616,19.640825 
	C61.411751,21.275721 60.623562,24.643705 57.400795,25.781332 
	C54.639282,26.756138 51.570679,26.867184 48.634567,27.339556 
	C45.211494,27.890274 41.756611,28.291866 38.379120,29.043798 
	C37.512985,29.236626 36.886204,30.504562 36.149460,31.278580 
	C37.020290,31.874355 37.859547,32.925880 38.767296,32.988773 
	C43.227528,33.297794 47.705635,33.355743 52.178051,33.480042 
	C56.646778,33.604244 61.125008,33.585285 65.577248,33.919662 
	C66.372849,33.979408 67.062187,35.453964 67.890305,36.672432 
	C67.980026,37.069603 68.021690,37.043385 68.035019,37.022743 
z"/>
<path fill="#E82B73" opacity="1.000000" stroke="none" 
	d="
M82.629303,27.991177 
	C82.956543,28.338083 82.972427,28.826675 83.000916,29.681690 
	C81.519493,30.731987 80.025467,31.415859 78.490974,31.537971 
	C79.739655,30.028429 81.028801,29.080647 82.629303,27.991177 
z"/>
<path fill="#E93478" opacity="1.000000" stroke="none" 
	d="
M96.677170,35.104458 
	C97.232826,35.227543 97.476234,35.476776 97.724167,36.148090 
	C97.023903,37.435562 95.653488,38.359215 95.723305,39.156811 
	C96.148407,44.013397 91.745804,42.059647 89.581741,43.680756 
	C88.845840,44.140926 88.374046,44.471786 87.673531,44.848843 
	C87.444801,44.895039 86.978348,44.910442 86.933029,44.483288 
	C86.854485,43.771694 86.821274,43.487255 86.788071,43.202820 
	C89.980362,40.545418 93.172646,37.888012 96.677170,35.104458 
z"/>
<path fill="#E61B6B" opacity="1.000000" stroke="none" 
	d="
M86.470665,43.373703 
	C86.821274,43.487255 86.854485,43.771694 86.714188,44.674004 
	C86.016464,45.854832 85.492249,46.417786 84.670776,47.188648 
	C82.985458,48.334820 81.597420,49.273083 79.987259,49.992981 
	C79.616394,49.629723 79.467651,49.484833 79.318909,49.339943 
	C81.597031,47.408157 83.875145,45.476376 86.470665,43.373703 
z"/>
<path fill="#E61B6B" opacity="1.000000" stroke="none" 
	d="
M75.138611,54.539333 
	C75.116585,54.278751 75.094551,54.018169 75.031784,53.367435 
	C76.261292,51.884048 77.531532,50.790813 79.060349,49.518761 
	C79.467651,49.484833 79.616394,49.629723 79.861664,50.304600 
	C78.351662,52.069500 76.745132,53.304417 75.138611,54.539333 
z"/>
<path fill="#F9D7D0" opacity="1.000000" stroke="none" 
	d="
M60.354774,48.264091 
	C61.851322,47.716442 63.122684,47.462475 64.732880,47.140823 
	C62.719406,54.671440 62.719406,54.671440 69.453545,55.955498 
	C65.360382,57.664783 61.305096,59.478405 57.140293,60.990345 
	C56.360229,61.273529 54.902054,60.585979 54.217979,59.891884 
	C53.822624,59.490738 54.081657,58.020470 54.508018,57.307606 
	C56.286533,54.333973 58.240170,51.465080 60.354774,48.264091 
z"/>
<path fill="#F7C2C5" opacity="1.000000" stroke="none" 
	d="
M74.948486,54.773270 
	C76.745132,53.304417 78.351662,52.069500 80.083786,50.522964 
	C81.597420,49.273083 82.985458,48.334820 84.877998,47.331364 
	C86.247086,48.831661 87.111671,50.397152 88.021957,52.008171 
	C88.067650,52.053699 88.159157,52.144650 88.159157,52.144650 
	C84.619461,55.026882 81.079765,57.909111 77.274841,61.009705 
	C76.589409,61.181950 76.169205,61.135830 75.163803,60.894749 
	C74.050156,59.786499 73.521706,58.873211 72.993256,57.959923 
	C73.581619,56.975685 74.169991,55.991447 74.948486,54.773270 
z"/>
<path fill="#F5B1BB" opacity="1.000000" stroke="none" 
	d="
M70.406075,63.354912 
	C68.534515,64.151062 66.704742,65.077103 64.776588,65.697289 
	C63.509846,66.104729 62.101101,66.070648 59.965408,66.330467 
	C58.099770,64.755569 58.771076,62.881157 61.278973,61.626026 
	C63.746830,60.390938 66.452919,59.631874 69.419464,58.884300 
	C69.991661,60.521412 70.198868,61.938160 70.406075,63.354912 
z"/>
<path fill="#F9D7D0" opacity="1.000000" stroke="none" 
	d="
M49.271423,65.592453 
	C50.416008,63.950207 51.373173,62.626617 52.757092,60.712902 
	C54.270905,63.251770 55.505383,65.322144 57.186653,68.141861 
	C54.052113,69.034088 51.507706,69.758331 47.706169,70.840416 
	C48.384712,68.412888 48.734356,67.162003 49.271423,65.592453 
z"/>
<path fill="#F7C2C5" opacity="1.000000" stroke="none" 
	d="
M70.678154,63.417282 
	C70.198868,61.938160 69.991661,60.521412 69.775932,58.719296 
	C70.115097,58.035164 70.462784,57.736397 71.087479,57.721329 
	C72.233765,59.652889 73.103050,61.300751 73.972343,62.948608 
	C72.964973,63.125626 71.957603,63.302639 70.678154,63.417282 
z"/>
<path fill="#F5B1BB" opacity="1.000000" stroke="none" 
	d="
M74.207924,62.789803 
	C73.103050,61.300751 72.233765,59.652889 71.414810,57.608292 
	C71.812828,57.359772 72.160522,57.507992 72.750732,57.808067 
	C73.521706,58.873211 74.050156,59.786499 74.846329,60.885311 
	C74.890533,61.590889 74.667023,62.110943 74.207924,62.789803 
z"/>
<path fill="#F5B1BB" opacity="1.000000" stroke="none" 
	d="
M89.845863,43.551449 
	C91.745804,42.059647 96.148407,44.013397 95.723305,39.156811 
	C95.653488,38.359215 97.023903,37.435562 97.925415,36.314983 
	C99.121742,35.593918 100.121346,35.128040 101.118973,34.657787 
	C100.559090,43.116718 101.715050,43.107071 94.465294,45.669037 
	C92.657692,45.183262 91.251778,44.367355 89.845863,43.551449 
z"/>
<path fill="#F7C2C5" opacity="1.000000" stroke="none" 
	d="
M89.581741,43.680756 
	C91.251778,44.367355 92.657692,45.183262 94.431839,46.013161 
	C93.835732,47.110008 92.871399,48.192863 91.530869,49.198399 
	C90.950119,48.756458 90.745575,48.391838 90.541039,48.027214 
	C90.399422,48.136868 90.257805,48.246521 90.116188,48.356178 
	C90.495819,48.779881 90.875443,49.203587 91.255074,49.627289 
	C90.395447,50.378830 89.535828,51.130375 88.417679,52.013283 
	C88.159157,52.144650 88.067650,52.053699 88.028488,51.562664 
	C87.960304,48.981968 87.931282,46.892307 87.902260,44.802647 
	C88.374046,44.471786 88.845840,44.140926 89.581741,43.680756 
z"/>
<path fill="#F5B1BB" opacity="1.000000" stroke="none" 
	d="
M87.673531,44.848843 
	C87.931282,46.892307 87.960304,48.981968 87.982788,51.517136 
	C87.111671,50.397152 86.247086,48.831661 85.175262,47.123455 
	C85.492249,46.417786 86.016464,45.854832 86.759514,45.101158 
	C86.978348,44.910442 87.444801,44.895039 87.673531,44.848843 
z"/>
<path fill="#F5B1BB" opacity="1.000000" stroke="none" 
	d="
M91.266678,49.607903 
	C90.875443,49.203587 90.495819,48.779881 90.116188,48.356178 
	C90.257805,48.246521 90.399422,48.136868 90.541039,48.027214 
	C90.745575,48.391838 90.950119,48.756458 91.240479,49.364868 
	C91.326302,49.608662 91.278275,49.588509 91.266678,49.607903 
z"/>
</svg>